<svg version="1.1" id="Layer_1" xmlns="http://www.w3.org/2000/svg" xmlns:xlink="http://www.w3.org/1999/xlink" x="0px" y="0px" width="16px" height="16px" viewBox="0 0 16 16" enable-background="new 0 0 16 16" xml:space="preserve">
  <g id="icon">
    <rect x="4" y="5" width="11" height="10" fill="#FFFFFF"/>
    <rect x="1" y="1" width="14" height="3" fill="#F1F2F2"/>
    <path d="M5.5,3H2.5c-0.276,0,-0.5,-0.224,-0.5,-0.5v0c0,-0.276,0.224,-0.5,0.5,-0.5h3c0.276,0,0.5,0.224,0.5,0.5v0C6,2.776,5.776,3,5.5,3zM12,2.5L12,2.5c0,-0.276,-0.224,-0.5,-0.5,-0.5H7.5c-0.276,0,-0.5,0.224,-0.5,0.5v0c0,0.276,0.224,0.5,0.5,0.5h4C11.776,3,12,2.776,12,2.5z" fill="#6D6E71"/>
    <path d="M7.5,7H5.5c-0.276,0,-0.5,-0.224,-0.5,-0.5v0c0,-0.276,0.224,-0.5,0.5,-0.5h2c0.276,0,0.5,0.224,0.5,0.5v0C8,6.776,7.776,7,7.5,7zM13,6.5L13,6.5c0,-0.276,-0.224,-0.5,-0.5,-0.5H9.5c-0.276,0,-0.5,0.224,-0.5,0.5v0c0,0.276,0.224,0.5,0.5,0.5h3C12.776,7,13,6.776,13,6.5zM7.5,14H5.5c-0.276,0,-0.5,-0.224,-0.5,-0.5l0,0c0,-0.276,0.224,-0.5,0.5,-0.5h2c0.276,0,0.5,0.224,0.5,0.5l0,0C8,13.776,7.776,14,7.5,14zM12,13.5L12,13.5c0,-0.276,-0.224,-0.5,-0.5,-0.5H9.5c-0.276,0,-0.5,0.224,-0.5,0.5l0,0c0,0.276,0.224,0.5,0.5,0.5h2C11.776,14,12,13.776,12,13.5z" fill="#B4B4B5"/>
    <path d="M4,8v4h11V8H4z" fill="#217346"/>
    <path d="M16,16v-1V5V4V1c0,-0.552,-0.448,-1,-1,-1H1C0.448,0,0,0.448,0,1v3c0,0.552,0.448,1,1,1h2v10v1M4,15L4,15V5h11v10l0,0M15,4H3H1V1h14V4z" fill="#6D6E71"/>
  </g>
</svg>
