<svg version="1.1" id="Layer_1" xmlns="http://www.w3.org/2000/svg" xmlns:xlink="http://www.w3.org/1999/xlink" x="0px" y="0px" width="32px" height="32px" viewBox="0 0 32 32" enable-background="new 0 0 32 32" xml:space="preserve">
  <g id="main">
    <g id="icon">
      <path d="M5,29L17.09,29L17.15,28.77L17.29,28.51L17.48,28.28L20.76,25L17.48,21.72L17.29,21.49L17.15,21.23L17.07,20.95L17.04,20.66L17.07,20.38L17.15,20.1L17.29,19.84L17.48,19.6L19.6,17.48L19.83,17.29L20.09,17.16L20.37,17.07L20.66,17.04L20.96,17.07L21.24,17.16L21.5,17.29L21.73,17.48L25,20.76L28.27,17.48L28.5,17.29L28.76,17.16L29,17.08L29,6L5,6zz" fill="#FFFFFF"/>
      <path d="M0.6109,1.079L0.293,1.293L0.07871,1.611L0,2L0,5L0.07871,5.389L0.293,5.707L0.6109,5.921L1,6L4,6L4,9L4,10L4,21L4,22L4,25L4,26L4,29L4.079,29.39L4.293,29.71L4.611,29.92L5,30L17.21,30L17.15,29.9L17.07,29.62L17.04,29.34L17.07,29.05L17.09,29L5,29L5,26L19.76,26L20.76,25L5,25L5,22L17.76,22L17.48,21.72L17.29,21.49L17.15,21.23L17.09,21L5,21L5,10L29,10L29,17.08L29.04,17.07L29.33,17.04L29.63,17.07L29.91,17.16L30,17.2L30,10L30,9L30,6L30,5L30,2L29.92,1.611L29.71,1.293L29.39,1.079L29,1L1,1zM29,2L29,5L4,5L1,5L1,2zM29,6L29,9L5,9L5,6zM29.24,25L30,25.76L30,25L30,24.24zM24.24,30L25.76,30L25,29.24zz" fill="#cfcfcf"/>
      <path d="M1,5L29,5L29,2L1,2zz" fill="#F1F2F2"/>
      <path d="M3.305,3.039L3.146,3.146L3.039,3.305L3,3.5L3.039,3.695L3.146,3.854L3.305,3.961L3.5,4L12.5,4L12.69,3.961L12.85,3.854L12.96,3.695L13,3.5L12.96,3.305L12.85,3.146L12.69,3.039L12.5,3L3.5,3zM15.31,3.039L15.15,3.146L15.04,3.305L15,3.5L15.04,3.695L15.15,3.854L15.31,3.961L15.5,4L20.5,4L20.69,3.961L20.85,3.854L20.96,3.695L21,3.5L20.96,3.305L20.85,3.146L20.69,3.039L20.5,3L15.5,3zz" fill="#6D6E71"/>
      <path d="M7.305,7.039L7.146,7.146L7.039,7.305L7,7.5L7.039,7.695L7.146,7.854L7.305,7.961L7.5,8L14.5,8L14.69,7.961L14.85,7.854L14.96,7.695L15,7.5L14.96,7.305L14.85,7.146L14.69,7.039L14.5,7L7.5,7zM17.31,7.039L17.15,7.146L17.04,7.305L17,7.5L17.04,7.695L17.15,7.854L17.31,7.961L17.5,8L22.5,8L22.69,7.961L22.85,7.854L22.96,7.695L23,7.5L22.96,7.305L22.85,7.146L22.69,7.039L22.5,7L17.5,7zM7.305,11.04L7.146,11.15L7.039,11.31L7,11.5L7.039,11.69L7.146,11.85L7.305,11.96L7.5,12L18.5,12L18.69,11.96L18.85,11.85L18.96,11.69L19,11.5L18.96,11.31L18.85,11.15L18.69,11.04L18.5,11L7.5,11zM21.31,11.04L21.15,11.15L21.04,11.31L21,11.5L21.04,11.69L21.15,11.85L21.31,11.96L21.5,12L26.5,12L26.69,11.96L26.85,11.85L26.96,11.69L27,11.5L26.96,11.31L26.85,11.15L26.69,11.04L26.5,11L21.5,11zM7.305,19.04L7.146,19.15L7.039,19.31L7,19.5L7.039,19.69L7.146,19.85L7.305,19.96L7.5,20L12.5,20L12.69,19.96L12.85,19.85L12.96,19.69L13,19.5L12.96,19.31L12.85,19.15L12.69,19.04L12.5,19L7.5,19zM15.31,19.04L15.15,19.15L15.04,19.31L15,19.5L15.04,19.69L15.15,19.85L15.31,19.96L15.5,20L17.2,20L17.29,19.84L17.48,19.6L18.08,19L15.5,19zM7.305,23.04L7.146,23.15L7.039,23.31L7,23.5L7.039,23.69L7.146,23.85L7.305,23.96L7.5,24L17.5,24L17.69,23.96L17.85,23.85L17.96,23.69L18,23.5L17.96,23.31L17.85,23.15L17.69,23.04L17.5,23L7.5,23zM7.305,27.04L7.146,27.15L7.039,27.31L7,27.5L7.039,27.69L7.146,27.85L7.305,27.96L7.5,28L14.5,28L14.69,27.96L14.85,27.85L14.96,27.69L15,27.5L14.96,27.31L14.85,27.15L14.69,27.04L14.5,27L7.5,27zM17.31,27.04L17.15,27.15L17.04,27.31L17,27.5L17.04,27.69L17.15,27.85L17.31,27.96L17.5,28L17.76,28L18.76,27L17.5,27zz" fill="#B4B4B5"/>
      <path d="M5,18L19.08,18L19.6,17.48L19.83,17.29L20.09,17.16L20.37,17.07L20.66,17.04L20.96,17.07L21.24,17.16L21.5,17.29L21.73,17.48L22.24,18L27.76,18L28.27,17.48L28.5,17.29L28.76,17.16L29,17.08L29,13L5,13zM17.5,15L17.69,15.04L17.85,15.15L17.96,15.31L18,15.5L17.96,15.69L17.85,15.85L17.69,15.96L17.5,16L7.5,16L7.305,15.96L7.146,15.85L7.039,15.69L7,15.5L7.039,15.31L7.146,15.15L7.305,15.04L7.5,15zM25.5,15L25.69,15.04L25.85,15.15L25.96,15.31L26,15.5L25.96,15.69L25.85,15.85L25.69,15.96L25.5,16L20.5,16L20.31,15.96L20.15,15.85L20.04,15.69L20,15.5L20.04,15.31L20.15,15.15L20.31,15.04L20.5,15zz" fill="#cfcfcf"/>
      <path d="M7.305,15.04L7.146,15.15L7.039,15.31L7,15.5L7.039,15.69L7.146,15.85L7.305,15.96L7.5,16L17.5,16L17.69,15.96L17.85,15.85L17.96,15.69L18,15.5L17.96,15.31L17.85,15.15L17.69,15.04L17.5,15L7.5,15zM20.31,15.04L20.15,15.15L20.04,15.31L20,15.5L20.04,15.69L20.15,15.85L20.31,15.96L20.5,16L25.5,16L25.69,15.96L25.85,15.85L25.96,15.69L26,15.5L25.96,15.31L25.85,15.15L25.69,15.04L25.5,15L20.5,15zz" fill="#FFFFFF"/>
    </g>
    <g id="overlay">
      <path d="M31.91,29.789l-2.121,2.121c-0.195,0.195,-0.512,0.195,-0.707,0L25,27.828l-3.982,3.982c-0.195,0.195,-0.512,0.195,-0.707,0l-2.121,-2.121c-0.195,-0.195,-0.195,-0.512,0,-0.707L22.172,25l-3.982,-3.982c-0.195,-0.195,-0.195,-0.512,0,-0.707l2.121,-2.121c0.195,-0.195,0.512,-0.195,0.707,0L25,22.172l3.982,-3.982c0.195,-0.195,0.512,-0.195,0.707,0l2.121,2.121c0.195,0.195,0.195,0.512,0,0.707L27.828,25l4.082,4.082C32.106,29.277,32.106,29.594,31.91,29.789z" fill-rule="evenodd" fill="#CD4C32"/>
    </g>
  </g>
</svg>
