<svg version="1.1" id="Layer_1" xmlns="http://www.w3.org/2000/svg" xmlns:xlink="http://www.w3.org/1999/xlink" x="0px" y="0px" width="16px" height="16px" viewBox="0 0 16 16" enable-background="new 0 0 16 16" xml:space="preserve">
  <g id="main">
    <g id="icon">
      <path d="M4,14L7.3,14L7.038,13.97L6.794,13.9L6.381,13.62L6.102,13.21L6.026,12.96L6,12.7L6,10.3L6.026,10.04L6.102,9.794L6.381,9.381L6.794,9.102L7.038,9.026L7.3,9L9,9L9,7.3L9.026,7.038L9.102,6.794L9.381,6.381L9.794,6.102L10.04,6.026L10.3,6L12.7,6L12.96,6.026L13.21,6.102L13.62,6.381L13.9,6.794L13.97,7.038L14,7.3L14,5L4,5zz" fill="#FFFFFF"/>
      <path d="M1,4L14,4L14,1L1,1zz" fill="#cfcfcf"/>
      <path d="M2.305,2.039L2.146,2.146L2.039,2.305L2,2.5L2.039,2.695L2.146,2.854L2.305,2.961L2.5,3L5.5,3L5.695,2.961L5.854,2.854L5.961,2.695L6,2.5L5.961,2.305L5.854,2.146L5.695,2.039L5.5,2L2.5,2zM7.305,2.039L7.146,2.146L7.039,2.305L7,2.5L7.039,2.695L7.146,2.854L7.305,2.961L7.5,3L11.5,3L11.69,2.961L11.85,2.854L11.96,2.695L12,2.5L11.96,2.305L11.85,2.146L11.69,2.039L11.5,2L7.5,2zz" fill="#6D6E71"/>
      <path d="M5.305,6.039L5.146,6.146L5.039,6.305L5,6.5L5.039,6.695L5.146,6.854L5.305,6.961L5.5,7L7.5,7L7.695,6.961L7.854,6.854L7.961,6.695L8,6.5L7.961,6.305L7.854,6.146L7.695,6.039L7.5,6L5.5,6zM9.305,6.039L9.146,6.146L9.039,6.305L9,6.5L9.039,6.695L9.104,6.791L9.381,6.381L9.794,6.102L10.04,6.026L10.3,6L9.5,6zM5.305,12.04L5.146,12.15L5.039,12.31L5,12.5L5.039,12.69L5.146,12.85L5.305,12.96L5.5,13L6.038,13L6.026,12.96L6,12.7L6,12L5.5,12zz" fill="#B4B4B5"/>
      <path d="M4,11L6,11L6,10.3L6.026,10.04L6.102,9.794L6.381,9.381L6.794,9.102L7.038,9.026L7.3,9L9,9L9,8L4,8zz" fill="#cfcfcf"/>
      <path d="M0.6109,0.07871L0.293,0.293L0.07871,0.6109L0,1L0,4L0.07871,4.389L0.293,4.707L0.6109,4.921L1,5L3,5L3,14L3,15L9,15L9,14L7.3,14L4,14L4,5L14,5L14,7.3L14,9L15,9L15,5L15,4L15,1L14.92,0.6109L14.71,0.293L14.39,0.07871L14,0L1,0zM14,1L14,4L3,4L1,4L1,1zM14,15L15,15L15,14L14,14zz" fill="#6D6E71"/>
    </g>
    <g id="overlay">
      <path d="M15.7,10h-2.7V7.3c0,-0.166,-0.134,-0.3,-0.3,-0.3h-2.4c-0.166,0,-0.3,0.134,-0.3,0.3v2.7H7.3c-0.166,0,-0.3,0.134,-0.3,0.3v2.4c0,0.166,0.134,0.3,0.3,0.3h2.7v2.7c0,0.166,0.134,0.3,0.3,0.3h2.4c0.166,0,0.3,-0.134,0.3,-0.3v-2.7h2.7c0.166,0,0.3,-0.134,0.3,-0.3v-2.4C16,10.134,15.866,10,15.7,10z" fill="#4EA17E"/>
    </g>
  </g>
</svg>
