<svg version="1.1" id="Layer_1" xmlns="http://www.w3.org/2000/svg" xmlns:xlink="http://www.w3.org/1999/xlink" x="0px" y="0px" width="16px" height="16px" viewBox="0 0 16 16" enable-background="new 0 0 16 16" xml:space="preserve">
  <g id="main">
    <g id="icon">
      <path d="M4,14L6.05,14L6.097,13.75L6.218,13.53L6.387,13.32L8.237,11.47L6.387,9.618L6.221,9.416L6.1,9.19L6.025,8.944L6,8.684L6.025,8.424L6.1,8.178L6.221,7.951L6.387,7.75L7.749,6.388L7.951,6.222L8.177,6.101L8.423,6.026L8.683,6.001L8.943,6.026L9.189,6.101L9.416,6.222L9.617,6.388L11.47,8.238L13.32,6.388L13.52,6.222L13.75,6.101L13.99,6.026L14,6.026L14,5L4,5zz" fill="#FFFFFF"/>
      <path d="M1,4L14,4L14,1L1,1zz" fill="#F1F2F2"/>
      <path d="M2.305,2.039L2.146,2.146L2.039,2.305L2,2.5L2.039,2.695L2.146,2.854L2.305,2.961L2.5,3L5.5,3L5.695,2.961L5.854,2.854L5.961,2.695L6,2.5L5.961,2.305L5.854,2.146L5.695,2.039L5.5,2L2.5,2zM7.305,2.039L7.146,2.146L7.039,2.305L7,2.5L7.039,2.695L7.146,2.854L7.305,2.961L7.5,3L11.5,3L11.69,2.961L11.85,2.854L11.96,2.695L12,2.5L11.96,2.305L11.85,2.146L11.69,2.039L11.5,2L7.5,2zz" fill="#cfcfcf"/>
      <path d="M5.305,6.039L5.146,6.146L5.039,6.305L5,6.5L5.039,6.695L5.146,6.854L5.305,6.961L5.5,7L7.137,7L7.749,6.388L7.921,6.246L7.854,6.146L7.695,6.039L7.5,6L5.5,6zM9.305,6.039L9.203,6.108L9.416,6.222L9.617,6.388L10.23,7L12.5,7L12.69,6.961L12.85,6.858L12.86,6.847L12.96,6.695L13,6.5L12.96,6.305L12.85,6.146L12.69,6.039L12.5,6L9.5,6zM5.305,12.04L5.146,12.15L5.039,12.31L5,12.5L5.039,12.69L5.146,12.85L5.305,12.96L5.5,13L6.705,13L7.671,12.03L7.5,12L5.5,12zz" fill="#B4B4B5"/>
      <path d="M4,11L7.769,11L6.387,9.618L6.221,9.416L6.1,9.19L6.025,8.944L6,8.684L6.025,8.424L6.1,8.178L6.195,8L4,8zM11.47,8.238L11.71,8L11.23,8zz" fill="#cfcfcf"/>
      <path d="M0.6109,0.07871L0.293,0.293L0.07871,0.6109L0,1L0,4L0.07871,4.389L0.293,4.707L0.6109,4.921L1,5L3,5L3,14L3,15L6.235,15L6.218,14.98L6.097,14.75L6.001,14.25L6.05,14L4,14L4,5L14,5L14,6.026L14.25,6.001L14.51,6.026L14.76,6.101L14.98,6.222L15,6.236L15,5L15,4L15,1L14.92,0.6109L14.71,0.293L14.39,0.07871L14,0L1,0zM14,1L14,4L3,4L1,4L1,1zM14.7,11.47L15,11.77L15,11.17zM11.17,15L11.77,15L11.47,14.7zz" fill="#6D6E71"/>
    </g>
    <g id="overlay">
      <path d="M15.906,14.544l-1.362,1.362c-0.125,0.125,-0.329,0.125,-0.454,0l-2.622,-2.622l-2.557,2.557c-0.125,0.125,-0.329,0.125,-0.454,0l-1.362,-1.362c-0.125,-0.125,-0.125,-0.329,0,-0.454l2.557,-2.557L7.094,8.911c-0.125,-0.125,-0.125,-0.329,0,-0.454l1.362,-1.362c0.125,-0.125,0.329,-0.125,0.454,0l2.557,2.557l2.557,-2.557c0.125,-0.125,0.329,-0.125,0.454,0l1.362,1.362c0.125,0.125,0.125,0.329,0,0.454l-2.557,2.557l2.622,2.622C16.031,14.215,16.031,14.418,15.906,14.544z" fill-rule="evenodd" fill="#CD4C32"/>
    </g>
  </g>
</svg>
