<svg version="1.1" id="Layer_1" xmlns="http://www.w3.org/2000/svg" xmlns:xlink="http://www.w3.org/1999/xlink" x="0px" y="0px" width="32px" height="32px" viewBox="0 0 32 32" enable-background="new 0 0 32 32" xml:space="preserve">
  <g id="icon">
    <rect x="6" y="7" width="24" height="23" fill="#FFFFFF"/>
    <path d="M30,2H2c-0.552,0,-1,0.448,-1,1v3c0,0.552,0.448,1,1,1h3v3v1v11v1v3v1v3c0,0.552,0.448,1,1,1h24c0.552,0,1,-0.448,1,-1v-3v-1v-3v-1V11v-1V7V6V3C31,2.448,30.552,2,30,2zM30,30H6v-3h24V30zM30,26H6v-3h24V26zM30,22H6V11h24V22zM30,10H6V7h24V10zM30,6H5H2V3h28V6z" fill="#6D6E71"/>
    <rect x="2" y="3" width="28" height="3" fill="#F1F2F2"/>
    <path d="M13.5,5H4.5c-0.276,0,-0.5,-0.224,-0.5,-0.5v0c0,-0.276,0.224,-0.5,0.5,-0.5h9c0.276,0,0.5,0.224,0.5,0.5v0C14,4.776,13.776,5,13.5,5zM22,4.5L22,4.5c0,-0.276,-0.224,-0.5,-0.5,-0.5h-5c-0.276,0,-0.5,0.224,-0.5,0.5v0c0,0.276,0.224,0.5,0.5,0.5h5C21.776,5,22,4.776,22,4.5z" fill="#6D6E71"/>
    <path d="M15.5,9H8.5c-0.276,0,-0.5,-0.224,-0.5,-0.5v0c0,-0.276,0.224,-0.5,0.5,-0.5h7c0.276,0,0.5,0.224,0.5,0.5v0C16,8.776,15.776,9,15.5,9zM24,8.5L24,8.5c0,-0.276,-0.224,-0.5,-0.5,-0.5h-5c-0.276,0,-0.5,0.224,-0.5,0.5v0c0,0.276,0.224,0.5,0.5,0.5h5C23.776,9,24,8.776,24,8.5zM19.5,13H8.5c-0.276,0,-0.5,-0.224,-0.5,-0.5v0c0,-0.276,0.224,-0.5,0.5,-0.5h11c0.276,0,0.5,0.224,0.5,0.5v0C20,12.776,19.776,13,19.5,13zM28,12.5L28,12.5c0,-0.276,-0.224,-0.5,-0.5,-0.5h-5c-0.276,0,-0.5,0.224,-0.5,0.5v0c0,0.276,0.224,0.5,0.5,0.5h5C27.776,13,28,12.776,28,12.5zM13.5,21H8.5c-0.276,0,-0.5,-0.224,-0.5,-0.5l0,0c0,-0.276,0.224,-0.5,0.5,-0.5h5c0.276,0,0.5,0.224,0.5,0.5l0,0C14,20.776,13.776,21,13.5,21zM22,20.5L22,20.5c0,-0.276,-0.224,-0.5,-0.5,-0.5h-5c-0.276,0,-0.5,0.224,-0.5,0.5l0,0c0,0.276,0.224,0.5,0.5,0.5h5C21.776,21,22,20.776,22,20.5zM18.5,25H8.5c-0.276,0,-0.5,-0.224,-0.5,-0.5l0,0c0,-0.276,0.224,-0.5,0.5,-0.5h10c0.276,0,0.5,0.224,0.5,0.5l0,0C19,24.776,18.776,25,18.5,25zM27,24.5L27,24.5c0,-0.276,-0.224,-0.5,-0.5,-0.5h-5c-0.276,0,-0.5,0.224,-0.5,0.5l0,0c0,0.276,0.224,0.5,0.5,0.5h5C26.776,25,27,24.776,27,24.5zM15.5,29H8.5c-0.276,0,-0.5,-0.224,-0.5,-0.5l0,0c0,-0.276,0.224,-0.5,0.5,-0.5h7c0.276,0,0.5,0.224,0.5,0.5l0,0C16,28.776,15.776,29,15.5,29zM24,28.5L24,28.5c0,-0.276,-0.224,-0.5,-0.5,-0.5h-5c-0.276,0,-0.5,0.224,-0.5,0.5l0,0c0,0.276,0.224,0.5,0.5,0.5h5C23.776,29,24,28.776,24,28.5z" fill="#B4B4B5"/>
    <path d="M6,14v5h24v-5H6zM18.5,17H8.5c-0.276,0,-0.5,-0.224,-0.5,-0.5s0.224,-0.5,0.5,-0.5h10c0.276,0,0.5,0.224,0.5,0.5S18.776,17,18.5,17zM26.5,17h-5c-0.276,0,-0.5,-0.224,-0.5,-0.5s0.224,-0.5,0.5,-0.5h5c0.276,0,0.5,0.224,0.5,0.5S26.776,17,26.5,17z" fill="#217346"/>
    <path d="M18.5,17H8.5c-0.276,0,-0.5,-0.224,-0.5,-0.5l0,0c0,-0.276,0.224,-0.5,0.5,-0.5h10c0.276,0,0.5,0.224,0.5,0.5l0,0C19,16.776,18.776,17,18.5,17zM27,16.5L27,16.5c0,-0.276,-0.224,-0.5,-0.5,-0.5h-5c-0.276,0,-0.5,0.224,-0.5,0.5l0,0c0,0.276,0.224,0.5,0.5,0.5h5C26.776,17,27,16.776,27,16.5z" fill="#FFFFFF"/>
  </g>
</svg>